name C:/MyDriveSym/Projects/mobilecap/Data\Session20210820_0001\mocap\ForceDataProcessed\DJAsym2_forces.mot
datacolumns 28
datarows 15
range 2.09200000 2.09900000
endheader 
time	R_ground_force_vx	R_ground_force_vy	R_ground_force_vz	R_ground_force_px	R_ground_force_py	R_ground_force_pz	R_ground_torque_x	R_ground_torque_y	R_ground_torque_z	L_ground_force_vx	L_ground_force_vy	L_ground_force_vz	L_ground_force_px	L_ground_force_py	L_ground_force_pz	L_ground_torque_x	L_ground_torque_y	L_ground_torque_z	3_ground_force_vx	3_ground_force_vy	3_ground_force_vz	3_ground_force_px	3_ground_force_py	3_ground_force_pz	3_ground_torque_x	3_ground_torque_y	3_ground_torque_z	
          2.09200000	       -121.43286100	       1021.78897500	        -85.73094200	         -0.12036600	          0.00600000	         -0.44843800	          0.00000000	         -3.49794000	          0.00000000	       -103.58276700	        926.18382600	         96.83111700	         -0.14750200	          0.00600000	         -0.74600500	          0.00000000	          2.80857600	          0.00000000	          0.00000000	          0.00000000	          0.00000000	          0.00000000	          0.00000000	          0.00000000	          0.00000000	          0.00000000	          0.00000000	
          2.09250000	       -121.68912800	       1021.03395900	        -85.29492300	         -0.12020200	          0.00600000	         -0.44843600	          0.00000000	         -3.50190700	          0.00000000	       -104.07204900	        925.15348500	         96.44656500	         -0.14735700	          0.00600000	         -0.74602600	          0.00000000	          2.80575500	          0.00000000	          0.00000000	          0.00000000	          0.00000000	          0.00000000	          0.00000000	          0.00000000	          0.00000000	          0.00000000	          0.00000000	
          2.09300000	       -121.93879200	       1020.24244900	        -84.84836100	         -0.12003800	          0.00600000	         -0.44843500	          0.00000000	         -3.50582100	          0.00000000	       -104.55675600	        924.07807200	         96.05159000	         -0.14721200	          0.00600000	         -0.74604700	          0.00000000	          2.80290600	          0.00000000	          0.00000000	          0.00000000	          0.00000000	          0.00000000	          0.00000000	          0.00000000	          0.00000000	          0.00000000	          0.00000000	
          2.09350000	       -122.18160800	       1019.41310900	        -84.39119400	         -0.11987400	          0.00600000	         -0.44843500	          0.00000000	         -3.50965900	          0.00000000	       -105.03609000	        922.95614000	         95.64600400	         -0.14706600	          0.00600000	         -0.74606700	          0.00000000	          2.80003000	          0.00000000	          0.00000000	          0.00000000	          0.00000000	          0.00000000	          0.00000000	          0.00000000	          0.00000000	          0.00000000	          0.00000000	
          2.09400000	       -122.41730000	       1018.54455800	        -83.92335600	         -0.11971100	          0.00600000	         -0.44843500	          0.00000000	         -3.51339700	          0.00000000	       -105.50924400	        921.78623600	         95.22961900	         -0.14692000	          0.00600000	         -0.74608800	          0.00000000	          2.79712100	          0.00000000	          0.00000000	          0.00000000	          0.00000000	          0.00000000	          0.00000000	          0.00000000	          0.00000000	          0.00000000	          0.00000000	
          2.09450000	       -122.64556600	       1017.63539600	        -83.44477800	         -0.11954800	          0.00600000	         -0.44843500	          0.00000000	         -3.51701200	          0.00000000	       -105.97541200	        920.56690900	         94.80225300	         -0.14677300	          0.00600000	         -0.74610700	          0.00000000	          2.79417400	          0.00000000	          0.00000000	          0.00000000	          0.00000000	          0.00000000	          0.00000000	          0.00000000	          0.00000000	          0.00000000	          0.00000000	
          2.09500000	       -122.86607700	       1016.68422800	        -82.95538100	         -0.11938500	          0.00600000	         -0.44843700	          0.00000000	         -3.52048900	          0.00000000	       -106.43378300	        919.29669100	         94.36374200	         -0.14662600	          0.00600000	         -0.74612600	          0.00000000	          2.79118100	          0.00000000	          0.00000000	          0.00000000	          0.00000000	          0.00000000	          0.00000000	          0.00000000	          0.00000000	          0.00000000	          0.00000000	
          2.09550000	       -123.07848900	       1015.68968100	        -82.45507900	         -0.11922200	          0.00600000	         -0.44843900	          0.00000000	         -3.52381400	          0.00000000	       -106.88353900	        917.97407400	         93.91393800	         -0.14647900	          0.00600000	         -0.74614500	          0.00000000	          2.78813700	          0.00000000	          0.00000000	          0.00000000	          0.00000000	          0.00000000	          0.00000000	          0.00000000	          0.00000000	          0.00000000	          0.00000000	
          2.09600000	       -123.28245300	       1014.65038600	        -81.94378200	         -0.11905900	          0.00600000	         -0.44844100	          0.00000000	         -3.52697300	          0.00000000	       -107.32385800	        916.59751400	         93.45270900	         -0.14633100	          0.00600000	         -0.74616400	          0.00000000	          2.78502500	          0.00000000	          0.00000000	          0.00000000	          0.00000000	          0.00000000	          0.00000000	          0.00000000	          0.00000000	          0.00000000	          0.00000000	
          2.09650000	       -123.47760900	       1013.56493900	        -81.42140100	         -0.11889700	          0.00600000	         -0.44844500	          0.00000000	         -3.52995000	          0.00000000	       -107.75391800	        915.16545200	         92.97994000	         -0.14618200	          0.00600000	         -0.74618200	          0.00000000	          2.78182700	          0.00000000	          0.00000000	          0.00000000	          0.00000000	          0.00000000	          0.00000000	          0.00000000	          0.00000000	          0.00000000	          0.00000000	
          2.09700000	       -123.66358300	       1012.43187000	        -80.88785800	         -0.11873400	          0.00600000	         -0.44844900	          0.00000000	         -3.53272500	          0.00000000	       -108.17289900	        913.67634100	         92.49553300	         -0.14603300	          0.00600000	         -0.74619900	          0.00000000	          2.77852500	          0.00000000	          0.00000000	          0.00000000	          0.00000000	          0.00000000	          0.00000000	          0.00000000	          0.00000000	          0.00000000	          0.00000000	
          2.09750000	       -123.83998200	       1011.24962700	        -80.34308700	         -0.11857100	          0.00600000	         -0.44845400	          0.00000000	         -3.53528000	          0.00000000	       -108.57998100	        912.12865400	         91.99941500	         -0.14588400	          0.00600000	         -0.74621600	          0.00000000	          2.77511000	          0.00000000	          0.00000000	          0.00000000	          0.00000000	          0.00000000	          0.00000000	          0.00000000	          0.00000000	          0.00000000	          0.00000000	
          2.09800000	       -124.00638700	       1010.01656900	        -79.78703100	         -0.11840900	          0.00600000	         -0.44846000	          0.00000000	         -3.53759300	          0.00000000	       -108.97434700	        910.52088600	         91.49154000	         -0.14573400	          0.00600000	         -0.74623300	          0.00000000	          2.77157500	          0.00000000	          0.00000000	          0.00000000	          0.00000000	          0.00000000	          0.00000000	          0.00000000	          0.00000000	          0.00000000	          0.00000000	
          2.09850000	       -124.16236500	       1008.73097600	        -79.21963200	         -0.11824600	          0.00600000	         -0.44846600	          0.00000000	         -3.53964100	          0.00000000	       -109.35518500	        908.85154600	         90.97188400	         -0.14558300	          0.00600000	         -0.74624900	          0.00000000	          2.76791100	          0.00000000	          0.00000000	          0.00000000	          0.00000000	          0.00000000	          0.00000000	          0.00000000	          0.00000000	          0.00000000	          0.00000000	
          2.09900000	       -124.30746500	       1007.39106900	        -78.64082600	         -0.11808300	          0.00600000	         -0.44847400	          0.00000000	         -3.54139900	          0.00000000	       -109.72168000	        907.11914600	         90.44045200	         -0.14543200	          0.00600000	         -0.74626400	          0.00000000	          2.76410400	          0.00000000	          0.00000000	          0.00000000	          0.00000000	          0.00000000	          0.00000000	          0.00000000	          0.00000000	          0.00000000	          0.00000000	
